<svg xmlns="http://www.w3.org/2000/svg" aria-hidden="true" style="position:absolute;width:0;height:0;overflow:hidden">
  <defs>
    <symbol id="icon-youtube" viewBox="0 0 20 20">
      <path d="M10 2.3C.172 2.3 0 3.174 0 10s.172 7.7 10 7.7 10-.874 10-7.7-.172-7.7-10-7.7zm3.205 8.034-4.49 2.096c-.393.182-.715-.022-.715-.456V8.026c0-.433.322-.638.715-.456l4.49 2.096c.393.184.393.484 0 .668z"/>
    </symbol>
    
    <symbol id="icon-instagram" viewBox="0 0 32 32">
      <path d="M31.969 9.408c-.075-1.7-.35-2.869-.744-3.882a7.806 7.806 0 0 0-1.851-2.838A7.867 7.867 0 0 0 26.542.844C25.523.45 24.36.175 22.66.1 20.947.019 20.403 0 16.059 0s-4.888.019-6.595.094c-1.7.075-2.869.35-3.882.744a7.803 7.803 0 0 0-2.838 1.85A7.867 7.867 0 0 0 .9 5.52C.506 6.539.231 7.702.156 9.402c-.081 1.713-.1 2.257-.1 6.601s.019 4.888.094 6.595c.075 1.7.35 2.869.744 3.882a7.895 7.895 0 0 0 1.85 2.838 7.867 7.867 0 0 0 2.832 1.844c1.019.394 2.182.669 3.882.744 1.706.075 2.25.094 6.595.094s4.888-.019 6.595-.094c1.7-.075 2.869-.35 3.882-.744a8.184 8.184 0 0 0 4.682-4.682c.394-1.019.669-2.182.744-3.882.075-1.707.094-2.251.094-6.595s-.006-4.888-.081-6.595zm-2.882 13.065c-.069 1.563-.331 2.407-.55 2.969a5.31 5.31 0 0 1-3.038 3.038c-.563.219-1.413.481-2.969.55-1.688.075-2.194.094-6.464.094s-4.782-.019-6.464-.094c-1.563-.069-2.407-.331-2.969-.55a4.926 4.926 0 0 1-1.838-1.194 4.974 4.974 0 0 1-1.194-1.838c-.219-.563-.481-1.413-.55-2.969-.075-1.688-.094-2.194-.094-6.464s.019-4.782.094-6.464c.069-1.563.331-2.407.55-2.969a4.868 4.868 0 0 1 1.2-1.838A4.974 4.974 0 0 1 6.639 3.55c.563-.219 1.413-.481 2.969-.55 1.688-.075 2.194-.094 6.464-.094 4.276 0 4.782.019 6.464.094 1.563.069 2.407.331 2.969.55a4.914 4.914 0 0 1 1.838 1.194 4.974 4.974 0 0 1 1.194 1.838c.219.563.481 1.413.55 2.969.075 1.688.094 2.194.094 6.464s-.019 4.77-.094 6.458z"/>
      <path d="M16.059 7.783c-4.538 0-8.22 3.682-8.22 8.22s3.682 8.22 8.22 8.22c4.539 0 8.22-3.682 8.22-8.22s-3.682-8.22-8.22-8.22zm0 13.552a5.333 5.333 0 0 1 0-10.664 5.333 5.333 0 0 1 0 10.664zM26.524 7.458a1.919 1.919 0 1 1-3.838 0 1.919 1.919 0 0 1 3.838 0z"/>
    </symbol>
    <symbol id="icon-facebook" viewBox="0 0 32 32">
      <path d="M19 6h5V0h-5c-3.86 0-7 3.14-7 7v3H8v6h4v16h6V16h5l1-6h-6V7c0-.542.458-1 1-1z"/>
    </symbol>
    <symbol id="icon-whatsapp" viewBox="0 0 32 32">
      <path d="M27.281 4.65C24.287 1.65 20.306 0 16.062 0 7.324 0 .212 7.112.212 15.856c0 2.794.731 5.525 2.119 7.925L.081 32l8.406-2.206a15.858 15.858 0 0 0 7.575 1.931h.006c8.738 0 15.856-7.113 15.856-15.856 0-4.238-1.65-8.219-4.644-11.219zm-11.212 24.4a13.17 13.17 0 0 1-6.713-1.837l-.481-.288-4.987 1.306 1.331-4.863-.313-.5a13.086 13.086 0 0 1-2.019-7.012c0-7.269 5.912-13.181 13.188-13.181 3.519 0 6.831 1.375 9.319 3.862a13.108 13.108 0 0 1 3.856 9.325c-.006 7.275-5.919 13.188-13.181 13.188zm7.225-9.875c-.394-.2-2.344-1.156-2.706-1.288s-.625-.2-.894.2c-.262.394-1.025 1.288-1.256 1.556-.231.262-.462.3-.856.1s-1.675-.619-3.188-1.969c-1.175-1.05-1.975-2.35-2.206-2.744s-.025-.613.175-.806c.181-.175.394-.463.594-.694s.262-.394.394-.662c.131-.262.069-.494-.031-.694s-.894-2.15-1.219-2.944c-.319-.775-.65-.669-.894-.681-.231-.012-.494-.012-.756-.012s-.694.1-1.056.494c-.363.394-1.387 1.356-1.387 3.306s1.419 3.831 1.619 4.1c.2.262 2.794 4.269 6.769 5.981.944.406 1.681.65 2.256.837.95.3 1.813.256 2.494.156.762-.113 2.344-.956 2.675-1.881s.331-1.719.231-1.881c-.094-.175-.356-.275-.756-.475z"/>
    </symbol>
    <symbol id="icon-twitter" viewBox="0 0 32 32">
      <path d="M32 7.075a12.941 12.941 0 0 1-3.769 1.031 6.601 6.601 0 0 0 2.887-3.631 13.21 13.21 0 0 1-4.169 1.594A6.565 6.565 0 0 0 22.155 4a6.563 6.563 0 0 0-6.563 6.563c0 .512.056 1.012.169 1.494A18.635 18.635 0 0 1 2.23 5.195a6.56 6.56 0 0 0-.887 3.3 6.557 6.557 0 0 0 2.919 5.463 6.565 6.565 0 0 1-2.975-.819v.081a6.565 6.565 0 0 0 5.269 6.437 6.574 6.574 0 0 1-2.968.112 6.588 6.588 0 0 0 6.131 4.563 13.17 13.17 0 0 1-9.725 2.719 18.568 18.568 0 0 0 10.069 2.95c12.075 0 18.681-10.006 18.681-18.681 0-.287-.006-.569-.019-.85A13.216 13.216 0 0 0 32 7.076z"/>
    </symbol>
    <symbol id="icon-pinterest" viewBox="0 0 32 32">
      <path d="M16 2.138c-7.656 0-13.863 6.206-13.863 13.863 0 5.875 3.656 10.887 8.813 12.906-.119-1.094-.231-2.781.05-3.975.25-1.081 1.625-6.887 1.625-6.887s-.412-.831-.412-2.056c0-1.925 1.119-3.369 2.506-3.369 1.181 0 1.756.887 1.756 1.95 0 1.188-.756 2.969-1.15 4.613-.331 1.381.688 2.506 2.05 2.506 2.462 0 4.356-2.6 4.356-6.35 0-3.319-2.387-5.638-5.787-5.638-3.944 0-6.256 2.956-6.256 6.019 0 1.194.456 2.469 1.031 3.163a.408.408 0 0 1 .094.4c-.106.438-.338 1.381-.387 1.575-.063.256-.2.306-.463.188-1.731-.806-2.813-3.337-2.813-5.369 0-4.375 3.175-8.387 9.156-8.387 4.806 0 8.544 3.425 8.544 8.006 0 4.775-3.012 8.625-7.194 8.625-1.406 0-2.725-.731-3.175-1.594 0 0-.694 2.644-.863 3.294-.313 1.206-1.156 2.712-1.725 3.631 1.3.4 2.675.619 4.106.619 7.656 0 13.863-6.206 13.863-13.863 0-7.662-6.206-13.869-13.863-13.869z"/>
    </symbol>
  </defs>
</svg>
