<svg xmlns="http://www.w3.org/2000/svg" aria-hidden="true" style="position:absolute;width:0;height:0;overflow:hidden">
  <defs>
    <symbol id="icon-youtube" viewBox="0 0 20 20">
      <path d="M10 2.3C.172 2.3 0 3.174 0 10s.172 7.7 10 7.7 10-.874 10-7.7-.172-7.7-10-7.7zm3.205 8.034-4.49 2.096c-.393.182-.715-.022-.715-.456V8.026c0-.433.322-.638.715-.456l4.49 2.096c.393.184.393.484 0 .668z"/>
    </symbol>
    <symbol id="icon-logo" viewBox="0 0 35 32">
      <path d="M9.717 14.962a.79.79 0 0 1-.087.418 20.37 20.37 0 0 1-.159.361l-.462.49-.274.822a5.466 5.466 0 0 1-.346.231 2.063 2.063 0 0 0-.605.504 1.386 1.386 0 0 1-.606.476c-.125.048-.24.106-.346.173a7.636 7.636 0 0 0-.548.361 7.307 7.307 0 0 1-.519.361.324.324 0 0 0-.115.072.327.327 0 0 1-.101.058c-.029.019-.154.058-.375.115s-.466.125-.736.202l-.736.188a3.633 3.633 0 0 1-.389.087c-.173.019-.351.029-.534.029s-.365.005-.548.014l-.216.13c-.106-.077-.221-.149-.346-.216s-.231-.139-.317-.216a4.344 4.344 0 0 1-.288-.288 21.16 21.16 0 0 1-.26-.317 16.516 16.516 0 0 0-.144-.389 3.356 3.356 0 0 1-.115-.389l-.072-.548a46.364 46.364 0 0 0-.058-.534c-.01-.173-.024-.351-.043-.534.163-.452.308-.904.433-1.356.135-.462.298-.913.49-1.356.048-.106.091-.212.13-.317.048-.115.096-.226.144-.332.058-.115.12-.221.188-.317.067-.106.125-.212.173-.317.048-.115.087-.231.115-.346.029-.125.067-.24.115-.346a3.11 3.11 0 0 1 .144-.245c.067-.115.139-.231.216-.346.077-.125.149-.245.216-.361.077-.115.139-.207.188-.274.077-.096.154-.188.231-.274s.139-.183.188-.288c.096-.163.188-.37.274-.62s.183-.471.288-.663c.115-.212.25-.409.404-.591.163-.192.313-.389.447-.591a7.13 7.13 0 0 0 .418-.663l.635-.462.288.288.692-.115.433.649c-.019.144-.043.308-.072.49l-.058.562-.029.548c0 .173.01.327.029.462a3.07 3.07 0 0 1-.216.548 2.155 2.155 0 0 1-.303.476l-.058.779-.577.519-.072.736-.49.577-.087.418a2.609 2.609 0 0 1-.115.389 4.167 4.167 0 0 1-.173.361 11.68 11.68 0 0 0-.202.361c-.192.163-.389.346-.591.548s-.385.404-.548.606a3.133 3.133 0 0 0-.245.346 3.937 3.937 0 0 1-.216.332c-.25.317-.519.615-.808.894s-.572.567-.851.865l.317.562a12.467 12.467 0 0 0 1.255.347c.096-.019.207-.038.332-.058.125-.029.255-.058.389-.087.135-.038.264-.077.389-.115.135-.038.245-.077.332-.115a5.37 5.37 0 0 0 .663-.332c.25-.154.462-.288.635-.404.308-.192.62-.389.938-.591s.62-.413.909-.635c.192-.144.394-.327.606-.548l.591-.62c.192-.202.361-.365.505-.49.154-.125.26-.173.317-.144zM5.794 8.139c-.202.337-.418.663-.649.981-.221.308-.428.63-.62.966a2.494 2.494 0 0 0-.173.361 2.032 2.032 0 0 1-.188.346c-.067.106-.139.212-.216.317s-.144.221-.202.346a6.856 6.856 0 0 0-.317.707c-.087.24-.183.476-.288.707-.115.231-.25.447-.404.649s-.293.418-.418.649l-.231.462a.582.582 0 0 1-.058.115.327.327 0 0 0-.058.101c-.038.106-.058.221-.058.346s-.014.24-.043.346c-.029.115-.072.226-.13.332s-.111.212-.159.317a1.86 1.86 0 0 0-.115.332 4.157 4.157 0 0 1-.101.317c.077-.077.159-.144.245-.202.096-.067.188-.139.274-.216.087-.087.168-.178.245-.274s.163-.183.26-.26c.087-.077.178-.144.274-.202.106-.067.207-.135.303-.202.154-.212.288-.428.404-.649a1.72 1.72 0 0 0 .144-.361c.048-.135.106-.255.173-.361.058-.106.13-.207.216-.303a1.76 1.76 0 0 0 .245-.303c.077-.106.139-.216.188-.332.058-.115.12-.226.188-.332.135-.212.284-.413.447-.606l.072-.909.519-.606.072-.548.361-.505.043-.808-.245-.721zm11.87 7.025a.456.456 0 0 1-.043.375 1.023 1.023 0 0 1-.274.26 2.515 2.515 0 0 1-.361.216 1.278 1.278 0 0 0-.317.202c-.433.096-.827.168-1.183.216-.346.038-.731.091-1.154.159a1.15 1.15 0 0 1-.361 0c-.106-.029-.216-.038-.332-.029h-.188a.503.503 0 0 0-.173 0c-.221.019-.365.096-.433.231a2.184 2.184 0 0 0-.173.447 2.688 2.688 0 0 1-.159.476c-.058.144-.188.245-.389.303a.128.128 0 0 0 .014.13.756.756 0 0 1 .087.101c-.164.048-.274.135-.332.26-.048.125-.091.25-.13.375s-.096.231-.173.317c-.067.087-.202.115-.404.087a3.483 3.483 0 0 1-1.053.764 3.94 3.94 0 0 1-1.255.389 1.534 1.534 0 0 1-.231-.144 1.718 1.718 0 0 0-.216-.159.86.86 0 0 0-.231-.115.662.662 0 0 0-.274 0 1.79 1.79 0 0 0-.115-.562 2.518 2.518 0 0 0-.288-.49.88.88 0 0 1 .072-.476c.058-.154.12-.303.188-.447s.125-.288.173-.433a.975.975 0 0 0-.029-.519.418.418 0 0 0 .188-.202.71.71 0 0 0 .072-.231c.019-.087.043-.163.072-.231.029-.077.096-.139.202-.188-.077-.231-.067-.399.029-.505.106-.115.231-.216.375-.303s.279-.183.404-.289c.125-.106.173-.264.144-.476.058-.058.125-.106.202-.144s.149-.072.216-.101c.077-.038.149-.077.216-.115s.13-.091.188-.159c-.067-.048-.101-.096-.101-.144a.874.874 0 0 1 .043-.144l.058-.173a.183.183 0 0 0 0-.173c.26.038.486.005.678-.101.202-.115.389-.231.562-.346.183-.115.365-.197.548-.245s.394.01.635.173l.087.303c.048.125.091.255.13.389.048.135.091.264.13.389s.063.216.072.274v1.154c.279.164.558.264.837.303a1.35 1.35 0 0 0 .837-.202c.106.096.207.125.303.087a2.45 2.45 0 0 0 .274-.159.553.553 0 0 1 .288-.087c.096-.01.192.067.288.231a.874.874 0 0 1 .418-.231c.144-.038.293-.058.447-.058.154-.01.303-.024.447-.043a.947.947 0 0 0 .447-.188zm-5.538.245c0-.144.024-.298.072-.462s.087-.322.115-.476a1.067 1.067 0 0 0-.014-.462c-.029-.144-.12-.274-.274-.389a.709.709 0 0 0-.26.245 7.968 7.968 0 0 0-.202.303.983.983 0 0 1-.245.245c-.086.067-.202.087-.346.058-.048.115-.048.212 0 .289.048.067.106.135.173.202.067.058.13.12.188.188.067.067.091.154.072.26a.754.754 0 0 0 .159.087c.067.019.135.034.202.043.077 0 .149-.01.216-.029s.115-.053.144-.101zm-.101 1.153a.959.959 0 0 1-.505-.13 9.452 9.452 0 0 1-.418-.317 3.62 3.62 0 0 0-.433-.317 1.047 1.047 0 0 0-.534-.188 2.454 2.454 0 0 1-.303.332c-.115.096-.216.202-.303.317s-.149.24-.188.375c-.029.135-.005.288.072.462a.84.84 0 0 0-.447.462c-.077.192-.13.404-.159.635l-.058.692c-.02.23-.082.438-.188.62l.317-.216a.193.193 0 0 1 .087.087.124.124 0 0 1 .014.13.755.755 0 0 1 .26-.173c.096-.048.192-.082.289-.101.106-.029.207-.053.303-.072a1.51 1.51 0 0 0 .303-.087c.24.135.413.164.519.087s.192-.192.26-.346c.067-.154.139-.312.216-.476a.518.518 0 0 1 .375-.317l-.101-.101c.163-.202.308-.409.433-.62.135-.221.197-.466.188-.736zm14.163-.995c-.106.135-.188.284-.245.447s-.13.317-.216.462a1.118 1.118 0 0 1-.303.361c-.115.096-.279.14-.49.13a.624.624 0 0 0-.346.317c-.067.144-.135.293-.202.447a1.126 1.126 0 0 1-.26.361c-.106.087-.264.096-.476.029a2.76 2.76 0 0 0-.735.462 8.693 8.693 0 0 0-.606.577 3.653 3.653 0 0 0-.231.26 1.18 1.18 0 0 1-.245.216c-.067.038-.135.043-.202.014s-.13-.058-.188-.087a.314.314 0 0 0-.173-.058c-.048 0-.091.043-.13.13.067.135.082.226.043.274-.038.058-.101.101-.188.13s-.178.053-.274.072a.512.512 0 0 0-.231.101c-.115.106-.197.236-.245.389s-.091.308-.13.462a1.683 1.683 0 0 1-.173.433.688.688 0 0 1-.346.332c.096.067.135.135.115.202a.586.586 0 0 1-.072.202 1.29 1.29 0 0 0-.086.216c-.01.067.029.135.115.202a4.22 4.22 0 0 0-.389.591l-.317.635a6.767 6.767 0 0 1-.346.635 2.069 2.069 0 0 1-.447.562l.043.346c-.144-.038-.236-.034-.274.014-.029.048-.043.115-.043.202v.26c.01.096-.019.168-.087.216a.292.292 0 0 1-.101.086.552.552 0 0 0-.087.072 1.758 1.758 0 0 0-.635.88c-.019.058-.034.115-.043.173s-.024.12-.043.188c-.048.135-.125.274-.231.418s-.221.293-.346.447a9.437 9.437 0 0 0-.361.476 2.71 2.71 0 0 0-.274.519c-.154-.019-.274-.005-.361.043a.727.727 0 0 0-.231.216c-.058.096-.106.197-.144.303s-.086.197-.144.274a.589.589 0 0 1-.245.188c-.106.048-.24.048-.404 0l-.649.591a.378.378 0 0 0-.332-.043 1.465 1.465 0 0 0-.332.159c-.115.067-.226.12-.332.159a.446.446 0 0 1-.361-.043c-.067.077-.125.115-.173.115-.048.01-.106-.029-.173-.115l-.216.231a2.401 2.401 0 0 0-.418-.274 2.546 2.546 0 0 1-.476-.274 1.188 1.188 0 0 1-.346-.346c-.087-.125-.101-.288-.043-.49a1.024 1.024 0 0 0-.087-.188.916.916 0 0 1-.115-.216.8.8 0 0 1-.058-.216.233.233 0 0 1 .058-.188.782.782 0 0 1-.087-.505c.019-.164.053-.327.101-.49s.086-.327.115-.49a.743.743 0 0 0-.087-.49.81.81 0 0 0 .26-.332c.048-.135.096-.274.144-.418.038-.144.082-.284.13-.418s.13-.245.245-.332l-.014-.231c.452-.481.933-.923 1.442-1.327a5.113 5.113 0 0 1 1.702-.88c.125-.221.289-.385.49-.49.202-.096.409-.188.62-.274.202-.077.389-.178.563-.303.173-.115.303-.303.389-.563.048.106.096.149.144.13a.349.349 0 0 0 .144-.072c.058-.029.111-.053.159-.072.048-.01.096.034.144.13.096-.288.25-.519.462-.692.221-.173.462-.327.721-.462l.808-.375c.269-.115.505-.26.707-.433.212-.173.37-.385.476-.635.106-.26.13-.591.072-.995a.418.418 0 0 0 .173-.216c.029-.096.048-.192.058-.288.019-.096.043-.183.072-.26s.091-.13.188-.159c-.067-.106-.149-.154-.245-.144s-.197.038-.303.087c-.096.048-.188.096-.274.144s-.159.058-.216.029c-.029.135-.091.231-.188.288a2.069 2.069 0 0 1-.288.159c-.106.038-.216.082-.332.13s-.207.125-.274.231c-.087-.038-.168-.019-.245.058a5.233 5.233 0 0 0-.216.231c-.067.077-.144.135-.231.173s-.188 0-.303-.115a.478.478 0 0 1-.288.303c-.125.048-.264.072-.418.072s-.313-.01-.476-.029a1.222 1.222 0 0 0-.418.014l-.245-.245a.258.258 0 0 1-.086.115.152.152 0 0 1-.144.014 6.372 6.372 0 0 1-.216-.519 2.097 2.097 0 0 1-.144-.562 1.17 1.17 0 0 1 .043-.548.974.974 0 0 1 .346-.476c.269-.49.62-.875 1.053-1.154a.194.194 0 0 0 .159.043 1.27 1.27 0 0 0 .361-.187.384.384 0 0 1 .159-.087.836.836 0 0 1 .159-.303c.086-.096.178-.183.274-.26a5.723 5.723 0 0 1 .634-.375c.183-.086.351-.192.505-.317.163-.135.327-.26.49-.375.163-.125.332-.231.505-.317s.37-.13.591-.13l.26.231a1.721 1.721 0 0 0-.433.361c-.115.135-.236.274-.361.418-.125.135-.26.26-.404.375s-.322.192-.534.231a2.66 2.66 0 0 1-.707.865c-.288.231-.587.447-.894.649 0 .144-.043.26-.13.346s-.188.163-.303.231c-.115.067-.231.13-.346.188a.77.77 0 0 0-.288.202.445.445 0 0 0-.101.303c0 .115.063.269.188.462.115-.058.255-.096.418-.115s.322-.043.476-.072c.154-.038.288-.091.404-.159a.599.599 0 0 0 .26-.346c.135-.115.279-.188.433-.216s.313-.034.476-.014c.317-.346.635-.663.952-.952.327-.298.635-.601.923-.909s.553-.635.793-.981c.25-.356.466-.764.649-1.226.192-.058.365-.034.519.072s.264.24.332.404a1.328 1.328 0 0 1-.101.332l-.115.289a2.088 2.088 0 0 0-.072.288c-.01.106.01.226.058.361-.077-.019-.139.005-.188.072a.807.807 0 0 1-.13.173.602.602 0 0 1-.014.346 2.036 2.036 0 0 1-.144.288 2.013 2.013 0 0 0-.159.288.699.699 0 0 0-.029.346c-.135.25-.236.514-.303.793a5.747 5.747 0 0 0-.115.822l.26.231c.125-.183.279-.312.462-.389.192-.077.385-.139.577-.188.192-.058.38-.12.563-.188.183-.077.341-.207.476-.389.058-.279.178-.476.361-.591.183-.125.375-.231.577-.317s.394-.183.577-.288c.192-.115.327-.298.404-.548h.361c-.019.048-.01.091.029.13l.101.101zm-7.976 6.39c-.096.058-.202.111-.317.159s-.231.101-.346.159-.221.125-.317.202a.717.717 0 0 0-.216.288.31.31 0 0 0-.303-.014c-.087.058-.173.12-.26.188a1.311 1.311 0 0 1-.274.188c-.087.048-.183.043-.288-.014a4.9 4.9 0 0 0-.519.375c-.173.135-.346.264-.519.39a4.68 4.68 0 0 1-.534.361 2.416 2.416 0 0 1-.606.26 1.124 1.124 0 0 1-.418.404c-.173.106-.346.207-.519.303-.183.096-.346.212-.49.346s-.236.322-.274.563c-.298.192-.5.438-.606.736-.115.308-.178.63-.188.966-.01.346.005.692.043 1.038a9.2 9.2 0 0 1 .058.966c.125.144.25.245.375.303s.255.087.389.087c.135 0 .274-.019.418-.058.135-.029.284-.058.447-.086.038-.144.111-.24.216-.288.096-.038.202-.067.317-.087.106-.019.207-.048.303-.086.087-.029.135-.106.144-.231l.13.115a.722.722 0 0 1 .13-.389c.077-.096.168-.188.274-.274s.221-.168.346-.245c.115-.077.216-.163.303-.26-.019-.183.014-.337.101-.462s.183-.24.288-.346.202-.221.288-.346a.743.743 0 0 0 .086-.476c.096-.038.164-.101.202-.188s.077-.168.115-.245a.425.425 0 0 1 .144-.173c.067-.038.168-.029.303.029-.135-.106-.192-.188-.173-.245a.445.445 0 0 1 .144-.159c.067-.038.13-.087.188-.144s.058-.144 0-.26c.231-.096.38-.236.447-.418s.115-.38.144-.591c.038-.202.091-.404.159-.606.067-.192.216-.346.447-.462a.745.745 0 0 1 .087-.462c.087-.125.168-.245.245-.361a.953.953 0 0 0 .173-.361c.038-.125.005-.274-.101-.447l-.188.361zm16.947-6.793a.456.456 0 0 1-.043.375 1.023 1.023 0 0 1-.274.26 2.515 2.515 0 0 1-.361.216 1.278 1.278 0 0 0-.317.202c-.433.096-.827.168-1.183.216-.346.038-.731.091-1.154.159a1.15 1.15 0 0 1-.361 0c-.106-.029-.216-.038-.332-.029h-.188a.503.503 0 0 0-.173 0c-.221.019-.365.096-.433.231a2.184 2.184 0 0 0-.173.447 2.688 2.688 0 0 1-.159.476c-.058.144-.188.245-.389.303a.128.128 0 0 0 .014.13.673.673 0 0 1 .086.101c-.163.048-.274.135-.332.26-.048.125-.091.25-.13.375s-.096.231-.173.317c-.067.087-.202.115-.404.087a3.483 3.483 0 0 1-1.053.764 3.94 3.94 0 0 1-1.255.389 1.534 1.534 0 0 1-.231-.144 1.793 1.793 0 0 0-.216-.159.86.86 0 0 0-.231-.115.662.662 0 0 0-.274 0 1.79 1.79 0 0 0-.115-.562 2.518 2.518 0 0 0-.288-.49.88.88 0 0 1 .072-.476c.058-.154.12-.303.188-.447s.125-.288.173-.433a.975.975 0 0 0-.029-.519.418.418 0 0 0 .188-.202.735.735 0 0 0 .072-.231c.019-.087.043-.163.072-.231.029-.077.096-.139.202-.188-.077-.231-.067-.399.029-.505.106-.115.231-.216.375-.303s.279-.183.404-.289c.125-.106.173-.264.144-.476.058-.058.125-.106.202-.144s.149-.072.216-.101c.077-.038.149-.077.216-.115s.13-.091.188-.159c-.067-.048-.101-.096-.101-.144a.874.874 0 0 1 .043-.144l.058-.173a.183.183 0 0 0 0-.173c.26.038.485.005.678-.101.202-.115.389-.231.563-.346.183-.115.365-.197.548-.245s.394.01.635.173l.086.303c.048.125.091.255.13.389.048.135.091.264.13.389s.062.216.072.274v1.154c.279.164.558.264.837.303a1.35 1.35 0 0 0 .837-.202c.106.096.207.125.303.087a2.45 2.45 0 0 0 .274-.159.553.553 0 0 1 .288-.087c.096-.01.192.067.288.231a.874.874 0 0 1 .418-.231c.144-.038.293-.058.447-.058.154-.01.303-.024.447-.043a.947.947 0 0 0 .447-.188zm-5.538.245c0-.144.024-.298.072-.462s.086-.322.115-.476a1.067 1.067 0 0 0-.014-.462c-.029-.144-.12-.274-.274-.389a.709.709 0 0 0-.26.245 7.968 7.968 0 0 0-.202.303.983.983 0 0 1-.245.245c-.087.067-.202.087-.346.058-.048.115-.048.212 0 .289.048.067.106.135.173.202.067.058.13.12.188.188.067.067.091.154.072.26a.754.754 0 0 0 .159.087c.067.019.135.034.202.043.077 0 .149-.01.216-.029s.115-.053.144-.101zm-.101 1.153a.959.959 0 0 1-.505-.13 9.452 9.452 0 0 1-.418-.317 3.62 3.62 0 0 0-.433-.317 1.047 1.047 0 0 0-.534-.188 2.522 2.522 0 0 1-.303.332c-.115.096-.216.202-.303.317s-.149.24-.188.375c-.029.135-.005.288.072.462a.84.84 0 0 0-.447.462c-.077.192-.13.404-.159.635l-.058.692c-.02.23-.082.438-.188.62l.317-.216a.193.193 0 0 1 .087.087.124.124 0 0 1 .014.13.755.755 0 0 1 .26-.173 1.14 1.14 0 0 1 .288-.101c.106-.029.207-.053.303-.072a1.51 1.51 0 0 0 .303-.087c.24.135.413.164.519.087s.192-.192.26-.346c.067-.154.139-.312.216-.476a.518.518 0 0 1 .375-.317l-.101-.101c.163-.202.308-.409.433-.62.135-.221.197-.466.188-.736z"/>
    </symbol>
    <symbol id="icon-instagram" viewBox="0 0 32 32">
      <path d="M31.969 9.408c-.075-1.7-.35-2.869-.744-3.882a7.806 7.806 0 0 0-1.851-2.838A7.867 7.867 0 0 0 26.542.844C25.523.45 24.36.175 22.66.1 20.947.019 20.403 0 16.059 0s-4.888.019-6.595.094c-1.7.075-2.869.35-3.882.744a7.803 7.803 0 0 0-2.838 1.85A7.867 7.867 0 0 0 .9 5.52C.506 6.539.231 7.702.156 9.402c-.081 1.713-.1 2.257-.1 6.601s.019 4.888.094 6.595c.075 1.7.35 2.869.744 3.882a7.895 7.895 0 0 0 1.85 2.838 7.867 7.867 0 0 0 2.832 1.844c1.019.394 2.182.669 3.882.744 1.706.075 2.25.094 6.595.094s4.888-.019 6.595-.094c1.7-.075 2.869-.35 3.882-.744a8.184 8.184 0 0 0 4.682-4.682c.394-1.019.669-2.182.744-3.882.075-1.707.094-2.251.094-6.595s-.006-4.888-.081-6.595zm-2.882 13.065c-.069 1.563-.331 2.407-.55 2.969a5.31 5.31 0 0 1-3.038 3.038c-.563.219-1.413.481-2.969.55-1.688.075-2.194.094-6.464.094s-4.782-.019-6.464-.094c-1.563-.069-2.407-.331-2.969-.55a4.926 4.926 0 0 1-1.838-1.194 4.974 4.974 0 0 1-1.194-1.838c-.219-.563-.481-1.413-.55-2.969-.075-1.688-.094-2.194-.094-6.464s.019-4.782.094-6.464c.069-1.563.331-2.407.55-2.969a4.868 4.868 0 0 1 1.2-1.838A4.974 4.974 0 0 1 6.639 3.55c.563-.219 1.413-.481 2.969-.55 1.688-.075 2.194-.094 6.464-.094 4.276 0 4.782.019 6.464.094 1.563.069 2.407.331 2.969.55a4.914 4.914 0 0 1 1.838 1.194 4.974 4.974 0 0 1 1.194 1.838c.219.563.481 1.413.55 2.969.075 1.688.094 2.194.094 6.464s-.019 4.77-.094 6.458z"/>
      <path d="M16.059 7.783c-4.538 0-8.22 3.682-8.22 8.22s3.682 8.22 8.22 8.22c4.539 0 8.22-3.682 8.22-8.22s-3.682-8.22-8.22-8.22zm0 13.552a5.333 5.333 0 0 1 0-10.664 5.333 5.333 0 0 1 0 10.664zM26.524 7.458a1.919 1.919 0 1 1-3.838 0 1.919 1.919 0 0 1 3.838 0z"/>
    </symbol>
    <symbol id="icon-facebook" viewBox="0 0 32 32">
      <path d="M19 6h5V0h-5c-3.86 0-7 3.14-7 7v3H8v6h4v16h6V16h5l1-6h-6V7c0-.542.458-1 1-1z"/>
    </symbol>
    <symbol id="icon-whatsapp" viewBox="0 0 32 32">
      <path d="M27.281 4.65C24.287 1.65 20.306 0 16.062 0 7.324 0 .212 7.112.212 15.856c0 2.794.731 5.525 2.119 7.925L.081 32l8.406-2.206a15.858 15.858 0 0 0 7.575 1.931h.006c8.738 0 15.856-7.113 15.856-15.856 0-4.238-1.65-8.219-4.644-11.219zm-11.212 24.4a13.17 13.17 0 0 1-6.713-1.837l-.481-.288-4.987 1.306 1.331-4.863-.313-.5a13.086 13.086 0 0 1-2.019-7.012c0-7.269 5.912-13.181 13.188-13.181 3.519 0 6.831 1.375 9.319 3.862a13.108 13.108 0 0 1 3.856 9.325c-.006 7.275-5.919 13.188-13.181 13.188zm7.225-9.875c-.394-.2-2.344-1.156-2.706-1.288s-.625-.2-.894.2c-.262.394-1.025 1.288-1.256 1.556-.231.262-.462.3-.856.1s-1.675-.619-3.188-1.969c-1.175-1.05-1.975-2.35-2.206-2.744s-.025-.613.175-.806c.181-.175.394-.463.594-.694s.262-.394.394-.662c.131-.262.069-.494-.031-.694s-.894-2.15-1.219-2.944c-.319-.775-.65-.669-.894-.681-.231-.012-.494-.012-.756-.012s-.694.1-1.056.494c-.363.394-1.387 1.356-1.387 3.306s1.419 3.831 1.619 4.1c.2.262 2.794 4.269 6.769 5.981.944.406 1.681.65 2.256.837.95.3 1.813.256 2.494.156.762-.113 2.344-.956 2.675-1.881s.331-1.719.231-1.881c-.094-.175-.356-.275-.756-.475z"/>
    </symbol>
    <symbol id="icon-twitter" viewBox="0 0 32 32">
      <path d="M32 7.075a12.941 12.941 0 0 1-3.769 1.031 6.601 6.601 0 0 0 2.887-3.631 13.21 13.21 0 0 1-4.169 1.594A6.565 6.565 0 0 0 22.155 4a6.563 6.563 0 0 0-6.563 6.563c0 .512.056 1.012.169 1.494A18.635 18.635 0 0 1 2.23 5.195a6.56 6.56 0 0 0-.887 3.3 6.557 6.557 0 0 0 2.919 5.463 6.565 6.565 0 0 1-2.975-.819v.081a6.565 6.565 0 0 0 5.269 6.437 6.574 6.574 0 0 1-2.968.112 6.588 6.588 0 0 0 6.131 4.563 13.17 13.17 0 0 1-9.725 2.719 18.568 18.568 0 0 0 10.069 2.95c12.075 0 18.681-10.006 18.681-18.681 0-.287-.006-.569-.019-.85A13.216 13.216 0 0 0 32 7.076z"/>
    </symbol>
    <symbol id="icon-pinterest" viewBox="0 0 32 32">
      <path d="M16 2.138c-7.656 0-13.863 6.206-13.863 13.863 0 5.875 3.656 10.887 8.813 12.906-.119-1.094-.231-2.781.05-3.975.25-1.081 1.625-6.887 1.625-6.887s-.412-.831-.412-2.056c0-1.925 1.119-3.369 2.506-3.369 1.181 0 1.756.887 1.756 1.95 0 1.188-.756 2.969-1.15 4.613-.331 1.381.688 2.506 2.05 2.506 2.462 0 4.356-2.6 4.356-6.35 0-3.319-2.387-5.638-5.787-5.638-3.944 0-6.256 2.956-6.256 6.019 0 1.194.456 2.469 1.031 3.163a.408.408 0 0 1 .094.4c-.106.438-.338 1.381-.387 1.575-.063.256-.2.306-.463.188-1.731-.806-2.813-3.337-2.813-5.369 0-4.375 3.175-8.387 9.156-8.387 4.806 0 8.544 3.425 8.544 8.006 0 4.775-3.012 8.625-7.194 8.625-1.406 0-2.725-.731-3.175-1.594 0 0-.694 2.644-.863 3.294-.313 1.206-1.156 2.712-1.725 3.631 1.3.4 2.675.619 4.106.619 7.656 0 13.863-6.206 13.863-13.863 0-7.662-6.206-13.869-13.863-13.869z"/>
    </symbol>
  </defs>
</svg>
